<svg width="558" height="193" viewBox="0 0 558 193" fill="none" xmlns="http://www.w3.org/2000/svg">
<path d="M92.5724 191.129C88.7724 189.429 86.6724 186.329 85.6724 181.229C85.1724 178.429 84.3724 177.129 82.5724 176.429C80.0724 175.529 80.0724 175.429 81.8724 172.729C87.1724 164.729 91.7724 154.829 94.7724 145.029C96.5724 139.029 98.7724 133.629 99.4724 133.129C100.272 132.629 102.172 132.529 103.572 132.929C105.772 133.429 106.272 134.129 106.272 136.629C106.272 144.529 109.572 155.329 115.372 166.329L121.272 177.529L118.572 178.629C115.172 179.929 114.272 181.229 114.272 185.129C114.272 190.329 112.572 191.429 103.772 192.029C97.9724 192.429 94.8724 192.229 92.5724 191.129Z" fill="#C9D9F3"/>
<path d="M38.2724 176.229C30.5724 173.529 27.3724 161.129 32.8724 154.629C34.9724 152.129 35.1724 151.229 34.2724 149.529C33.6724 148.329 33.2724 146.929 33.4724 146.329C33.6724 145.829 36.9724 144.329 40.8724 143.029C49.2724 140.329 57.4724 136.129 65.7724 130.629C69.0724 128.329 72.2724 126.529 72.7724 126.529C74.3724 126.629 78.2724 130.229 78.2724 131.729C78.2724 132.529 76.2724 135.929 73.8724 139.329C68.1724 147.529 64.8724 157.029 63.7724 168.529C63.5724 170.729 63.1724 171.029 60.2724 170.729C57.8724 170.429 56.3724 171.029 54.3724 172.929C51.7724 175.429 46.4724 177.629 43.2724 177.429C42.4724 177.429 40.1724 176.929 38.2724 176.229Z" fill="#C9D9F3"/>
<path d="M165.123 174.327C172.84 171.674 176.116 159.294 170.656 152.76C168.571 150.247 168.377 149.346 169.287 147.652C169.894 146.455 170.303 145.058 170.107 144.457C169.91 143.955 166.619 142.435 162.727 141.111C154.344 138.36 146.17 134.11 137.904 128.559C134.618 126.239 131.429 124.419 130.929 124.416C129.328 124.506 125.406 128.082 125.397 129.582C125.392 130.382 127.371 133.794 129.75 137.209C135.4 145.444 138.642 154.964 139.671 166.47C139.858 168.672 140.256 168.974 143.158 168.692C145.559 168.407 147.056 169.016 149.044 170.928C151.629 173.444 156.915 175.676 160.116 175.496C160.916 175.501 163.219 175.015 165.123 174.327Z" fill="#C9D9F3"/>
<path d="M175.016 119.967C175.016 119.167 175.916 117.567 177.016 116.467C178.616 114.867 179.816 114.567 182.316 114.967C188.916 116.267 196.716 107.667 195.516 100.667C194.116 92.9671 190.816 89.5671 183.916 88.9671C181.816 88.7671 178.716 87.6671 177.116 86.5671C173.416 83.8671 168.816 83.8671 166.516 86.4671C165.416 87.6671 163.016 89.2671 161.116 90.0671C159.116 90.9671 156.016 92.2671 154.216 93.0671C151.116 94.3671 145.516 95.5671 140.116 95.9671C138.716 96.0671 136.916 96.2671 136.316 96.2671C135.616 96.3671 134.316 97.8671 133.416 99.6671C131.816 102.767 131.816 102.867 133.916 104.567C135.116 105.567 139.516 107.067 143.716 108.067C152.316 109.967 161.316 113.767 168.016 118.367C173.016 121.767 175.016 122.267 175.016 119.967Z" fill="#C9D9F3"/>
<path d="M96.3724 112.829C92.5724 112.129 84.2724 103.129 84.2724 99.8294C84.2724 96.0294 89.8724 85.3294 92.5724 83.8294C95.6724 82.1294 104.772 82.2294 108.272 84.0294C112.972 86.4294 115.572 90.9294 115.472 96.8294C115.372 103.429 113.672 106.829 108.172 110.529C103.972 113.329 101.672 113.829 96.3724 112.829Z" fill="#C9D9F3"/>
<path d="M57.7724 70.9294C52.8724 68.5294 44.6724 65.5294 39.5724 64.2294C29.5724 61.6294 27.2724 60.3294 27.2724 57.1294C27.2724 55.9294 26.1724 53.3294 24.7724 51.3294C21.2724 46.2294 20.3724 37.6294 22.8724 34.1294C23.9724 32.7294 25.5724 31.5294 26.5724 31.5294C27.5724 31.5294 29.3724 30.4294 30.6724 29.0294C33.6724 25.8294 39.8724 25.7294 46.2724 28.6294C48.7724 29.8294 51.9724 30.7294 53.5724 30.7294C55.3724 30.6294 56.2724 31.1294 56.2724 32.2294C56.2724 34.4294 60.6724 46.5294 63.6724 52.3294C64.9724 54.9294 68.1724 60.1294 70.6724 63.9294C73.1724 67.7294 75.2724 71.4294 75.2724 72.2294C75.2724 73.6294 71.2724 75.6294 68.4724 75.4294C67.5724 75.4294 62.7724 73.4294 57.7724 70.9294Z" fill="#C9D9F3"/>
<path d="M20.6232 120.559C20.6232 119.759 19.7232 118.159 18.6232 117.059C17.0232 115.459 15.8232 115.159 13.3232 115.559C6.72321 116.859 -1.07679 108.259 0.123208 101.259C1.52321 93.5588 4.82321 90.1588 11.7232 89.5588C13.8232 89.3588 16.9232 88.2588 18.5232 87.1588C22.2232 84.4588 26.8232 84.4588 29.1232 87.0588C30.2232 88.2588 32.6232 89.8588 34.5232 90.6588C36.5232 91.5588 39.6232 92.8588 41.4232 93.6588C44.5232 94.9588 50.1232 96.1588 55.5232 96.5588C56.9232 96.6588 58.7232 96.8588 59.3232 96.8588C60.0232 96.9588 61.3232 98.4588 62.2232 100.259C63.8232 103.359 63.8232 103.459 61.7232 105.159C60.5232 106.159 56.1232 107.659 51.9232 108.659C43.3232 110.559 34.3232 114.359 27.6232 118.959C22.6232 122.359 20.6232 122.859 20.6232 120.559Z" fill="#C9D9F3"/>
<path d="M141.945 68.6619C146.451 65.5854 154.138 61.4427 158.999 59.4262C168.524 55.4218 170.614 53.806 170.156 50.639C169.985 49.4513 170.701 46.7207 171.801 44.5409C174.535 38.9925 174.195 30.3522 171.219 27.246C169.93 26.0179 168.175 25.0592 167.185 25.2023C166.196 25.3454 164.257 24.5144 162.77 23.3148C159.343 20.5771 153.192 21.3654 147.273 25.1515C144.971 26.697 141.932 28.0457 140.349 28.2746C138.553 28.4333 137.734 29.0569 137.891 30.1456C138.206 32.323 135.583 44.9281 133.444 51.0978C132.53 53.857 130.107 59.4615 128.176 63.5802C126.246 67.6988 124.697 71.6613 124.811 72.453C125.012 73.8386 129.257 75.2456 131.999 74.6469C132.89 74.5181 137.355 71.8518 141.945 68.6619Z" fill="#C9D9F3"/>
<path d="M98.0724 63.8294C97.1724 62.8294 95.5724 58.3294 94.5724 53.9294C93.4724 49.4294 91.3724 43.8294 89.9724 41.4294C85.9724 34.9294 85.0724 33.5294 81.5724 27.9294C79.7724 25.1294 78.2724 22.4294 78.2724 21.8294C78.2724 21.3294 79.7724 20.2294 81.5724 19.4294C84.3724 18.2294 84.8724 17.4294 85.4724 13.3294C86.2724 7.52941 89.6724 1.72941 92.5724 1.12941C100.372 -0.470588 105.972 -0.370588 109.272 1.42941C112.272 3.02941 113.172 4.32941 115.372 11.1294C117.572 17.5294 118.472 19.1294 120.372 19.5294C123.572 20.3294 123.872 22.7294 120.972 26.1294C115.272 33.2294 108.372 49.5294 106.472 60.6294C105.772 64.6294 105.472 65.0294 102.672 65.3294C100.772 65.5294 99.0724 65.0294 98.0724 63.8294Z" fill="#C9D9F3"/>
<path d="M218.757 135.719V154H158.21V135.719H218.757ZM165.866 40.25V154H142.429V40.25H165.866ZM210.866 86.5781V104.391H158.21V86.5781H210.866ZM218.679 40.25V58.6094H158.21V40.25H218.679ZM288.05 40.25V154H264.691V40.25H288.05ZM323.05 40.25V58.6094H230.238V40.25H323.05ZM397.579 124.234C397.579 122.203 397.266 120.38 396.641 118.766C396.068 117.099 394.974 115.589 393.36 114.234C391.745 112.828 389.48 111.448 386.563 110.094C383.646 108.74 379.87 107.333 375.235 105.875C370.079 104.208 365.183 102.333 360.547 100.25C355.964 98.1667 351.902 95.7448 348.36 92.9844C344.87 90.1719 342.11 86.9167 340.079 83.2188C338.099 79.5208 337.11 75.224 337.11 70.3281C337.11 65.5885 338.152 61.2917 340.235 57.4375C342.318 53.5312 345.235 50.1979 348.985 47.4375C352.735 44.625 357.162 42.4635 362.266 40.9531C367.422 39.4427 373.073 38.6875 379.219 38.6875C387.605 38.6875 394.922 40.1979 401.172 43.2188C407.422 46.2396 412.266 50.3802 415.704 55.6406C419.193 60.901 420.938 66.9167 420.938 73.6875H397.657C397.657 70.3542 396.954 67.4375 395.547 64.9375C394.193 62.3854 392.11 60.3802 389.297 58.9219C386.537 57.4635 383.047 56.7344 378.829 56.7344C374.766 56.7344 371.381 57.3594 368.672 58.6094C365.964 59.8073 363.933 61.4479 362.579 63.5312C361.224 65.5625 360.547 67.8542 360.547 70.4062C360.547 72.3333 361.016 74.0781 361.954 75.6406C362.943 77.2031 364.402 78.6615 366.329 80.0156C368.256 81.3698 370.625 82.6458 373.438 83.8438C376.25 85.0417 379.506 86.2135 383.204 87.3594C389.402 89.2344 394.844 91.3438 399.532 93.6875C404.271 96.0312 408.23 98.6615 411.407 101.578C414.584 104.495 416.98 107.802 418.594 111.5C420.209 115.198 421.016 119.391 421.016 124.078C421.016 129.026 420.053 133.453 418.125 137.359C416.198 141.266 413.412 144.573 409.766 147.281C406.12 149.99 401.771 152.047 396.719 153.453C391.667 154.859 386.016 155.562 379.766 155.562C374.141 155.562 368.594 154.833 363.125 153.375C357.657 151.865 352.683 149.599 348.204 146.578C343.777 143.557 340.235 139.703 337.579 135.016C334.922 130.328 333.594 124.781 333.594 118.375H357.11C357.11 121.917 357.657 124.911 358.75 127.359C359.844 129.807 361.381 131.786 363.36 133.297C365.391 134.807 367.787 135.901 370.547 136.578C373.36 137.255 376.433 137.594 379.766 137.594C383.829 137.594 387.162 137.021 389.766 135.875C392.422 134.729 394.375 133.141 395.625 131.109C396.928 129.078 397.579 126.786 397.579 124.234ZM533.591 94.4688V99.8594C533.591 108.505 532.419 116.266 530.076 123.141C527.732 130.016 524.424 135.875 520.154 140.719C515.883 145.51 510.779 149.182 504.841 151.734C498.956 154.286 492.419 155.562 485.232 155.562C478.096 155.562 471.56 154.286 465.622 151.734C459.737 149.182 454.633 145.51 450.31 140.719C445.987 135.875 442.628 130.016 440.232 123.141C437.888 116.266 436.716 108.505 436.716 99.8594V94.4688C436.716 85.7708 437.888 78.0104 440.232 71.1875C442.576 64.3125 445.883 58.4531 450.154 53.6094C454.477 48.7656 459.581 45.0677 465.466 42.5156C471.404 39.9635 477.94 38.6875 485.076 38.6875C492.263 38.6875 498.799 39.9635 504.685 42.5156C510.622 45.0677 515.727 48.7656 519.997 53.6094C524.32 58.4531 527.654 64.3125 529.997 71.1875C532.393 78.0104 533.591 85.7708 533.591 94.4688ZM509.919 99.8594V94.3125C509.919 88.2708 509.372 82.9583 508.279 78.375C507.185 73.7917 505.57 69.9375 503.435 66.8125C501.299 63.6875 498.695 61.3438 495.622 59.7812C492.549 58.1667 489.034 57.3594 485.076 57.3594C481.117 57.3594 477.602 58.1667 474.529 59.7812C471.508 61.3438 468.93 63.6875 466.794 66.8125C464.711 69.9375 463.122 73.7917 462.029 78.375C460.935 82.9583 460.388 88.2708 460.388 94.3125V99.8594C460.388 105.849 460.935 111.161 462.029 115.797C463.122 120.38 464.737 124.26 466.872 127.438C469.008 130.562 471.612 132.932 474.685 134.547C477.758 136.161 481.273 136.969 485.232 136.969C489.19 136.969 492.706 136.161 495.779 134.547C498.852 132.932 501.43 130.562 503.513 127.438C505.596 124.26 507.185 120.38 508.279 115.797C509.372 111.161 509.919 105.849 509.919 99.8594Z" fill="#F4F4F5"/>
</svg>
