<svg width="196" height="193" viewBox="0 0 196 193" fill="none" xmlns="http://www.w3.org/2000/svg">
<path d="M92.5724 191.129C88.7724 189.429 86.6724 186.329 85.6724 181.229C85.1724 178.429 84.3724 177.129 82.5724 176.429C80.0724 175.529 80.0723 175.429 81.8723 172.729C87.1724 164.729 91.7724 154.829 94.7724 145.029C96.5724 139.029 98.7723 133.629 99.4723 133.129C100.272 132.629 102.172 132.529 103.572 132.929C105.772 133.429 106.272 134.129 106.272 136.629C106.272 144.529 109.572 155.329 115.372 166.329L121.272 177.529L118.572 178.629C115.172 179.929 114.272 181.229 114.272 185.129C114.272 190.329 112.572 191.429 103.772 192.029C97.9724 192.429 94.8724 192.229 92.5724 191.129Z" fill="#B7B7B7"/>
<path d="M38.2724 176.229C30.5724 173.529 27.3724 161.129 32.8724 154.629C34.9724 152.129 35.1724 151.229 34.2724 149.529C33.6724 148.329 33.2724 146.929 33.4724 146.329C33.6724 145.829 36.9724 144.329 40.8724 143.029C49.2724 140.329 57.4724 136.129 65.7724 130.629C69.0724 128.329 72.2724 126.529 72.7724 126.529C74.3724 126.629 78.2724 130.229 78.2724 131.729C78.2724 132.529 76.2724 135.929 73.8724 139.329C68.1724 147.529 64.8724 157.029 63.7724 168.529C63.5724 170.729 63.1724 171.029 60.2724 170.729C57.8724 170.429 56.3724 171.029 54.3724 172.929C51.7724 175.429 46.4724 177.629 43.2724 177.429C42.4724 177.429 40.1724 176.929 38.2724 176.229Z" fill="#B7B7B7"/>
<path d="M165.123 174.327C172.84 171.674 176.116 159.294 170.656 152.76C168.571 150.247 168.377 149.346 169.287 147.652C169.894 146.455 170.303 145.058 170.107 144.457C169.91 143.955 166.619 142.435 162.727 141.111C154.344 138.36 146.17 134.11 137.904 128.559C134.618 126.239 131.429 124.419 130.929 124.416C129.328 124.506 125.406 128.082 125.397 129.582C125.392 130.382 127.371 133.794 129.75 137.209C135.4 145.444 138.642 154.964 139.671 166.47C139.858 168.672 140.256 168.974 143.158 168.692C145.559 168.407 147.056 169.016 149.044 170.928C151.629 173.444 156.915 175.676 160.116 175.496C160.916 175.501 163.219 175.015 165.123 174.327Z" fill="#B7B7B7"/>
<path d="M175.016 119.967C175.016 119.167 175.916 117.567 177.016 116.467C178.616 114.867 179.816 114.567 182.316 114.967C188.916 116.267 196.716 107.667 195.516 100.667C194.116 92.9671 190.816 89.5671 183.916 88.9671C181.816 88.7671 178.716 87.6671 177.116 86.5671C173.416 83.8671 168.816 83.8671 166.516 86.4671C165.416 87.6671 163.016 89.2671 161.116 90.0671C159.116 90.9671 156.016 92.2671 154.216 93.0671C151.116 94.3671 145.516 95.5671 140.116 95.9671C138.716 96.0671 136.916 96.2671 136.316 96.2671C135.616 96.3671 134.316 97.8671 133.416 99.6671C131.816 102.767 131.816 102.867 133.916 104.567C135.116 105.567 139.516 107.067 143.716 108.067C152.316 109.967 161.316 113.767 168.016 118.367C173.016 121.767 175.016 122.267 175.016 119.967Z" fill="#B7B7B7"/>
<path d="M96.3724 112.829C92.5724 112.129 84.2724 103.129 84.2724 99.8294C84.2724 96.0294 89.8724 85.3294 92.5724 83.8294C95.6724 82.1294 104.772 82.2294 108.272 84.0294C112.972 86.4294 115.572 90.9294 115.472 96.8294C115.372 103.429 113.672 106.829 108.172 110.529C103.972 113.329 101.672 113.829 96.3724 112.829Z" fill="#B7B7B7"/>
<path d="M57.7724 70.9294C52.8724 68.5294 44.6724 65.5294 39.5724 64.2294C29.5724 61.6294 27.2724 60.3294 27.2724 57.1294C27.2724 55.9294 26.1724 53.3294 24.7724 51.3294C21.2724 46.2294 20.3724 37.6294 22.8724 34.1294C23.9724 32.7294 25.5724 31.5294 26.5724 31.5294C27.5724 31.5294 29.3724 30.4294 30.6724 29.0294C33.6724 25.8294 39.8724 25.7294 46.2724 28.6294C48.7724 29.8294 51.9724 30.7294 53.5724 30.7294C55.3724 30.6294 56.2724 31.1294 56.2724 32.2294C56.2724 34.4294 60.6724 46.5294 63.6724 52.3294C64.9724 54.9294 68.1724 60.1294 70.6724 63.9294C73.1724 67.7294 75.2724 71.4294 75.2724 72.2294C75.2724 73.6294 71.2724 75.6294 68.4724 75.4294C67.5724 75.4294 62.7724 73.4294 57.7724 70.9294Z" fill="#B7B7B7"/>
<path d="M20.6232 120.559C20.6232 119.759 19.7232 118.159 18.6232 117.059C17.0232 115.459 15.8232 115.159 13.3232 115.559C6.72321 116.859 -1.07679 108.259 0.123208 101.259C1.52321 93.5588 4.82321 90.1588 11.7232 89.5588C13.8232 89.3588 16.9232 88.2588 18.5232 87.1588C22.2232 84.4588 26.8232 84.4588 29.1232 87.0588C30.2232 88.2588 32.6232 89.8588 34.5232 90.6588C36.5232 91.5588 39.6232 92.8588 41.4232 93.6588C44.5232 94.9588 50.1232 96.1588 55.5232 96.5588C56.9232 96.6588 58.7232 96.8588 59.3232 96.8588C60.0232 96.9588 61.3232 98.4588 62.2232 100.259C63.8232 103.359 63.8232 103.459 61.7232 105.159C60.5232 106.159 56.1232 107.659 51.9232 108.659C43.3232 110.559 34.3232 114.359 27.6232 118.959C22.6232 122.359 20.6232 122.859 20.6232 120.559Z" fill="#B7B7B7"/>
<path d="M141.945 68.6619C146.451 65.5854 154.138 61.4427 158.999 59.4262C168.524 55.4218 170.614 53.806 170.156 50.639C169.985 49.4513 170.701 46.7207 171.801 44.5409C174.535 38.9925 174.195 30.3522 171.219 27.246C169.93 26.0179 168.175 25.0592 167.185 25.2023C166.196 25.3454 164.257 24.5144 162.77 23.3148C159.343 20.5771 153.192 21.3654 147.273 25.1515C144.971 26.697 141.932 28.0457 140.349 28.2746C138.553 28.4333 137.734 29.0569 137.891 30.1456C138.206 32.323 135.583 44.9281 133.444 51.0978C132.53 53.857 130.107 59.4615 128.176 63.5802C126.246 67.6988 124.697 71.6613 124.811 72.453C125.012 73.8386 129.257 75.2456 131.999 74.6469C132.89 74.5181 137.355 71.8518 141.945 68.6619Z" fill="#B7B7B7"/>
<path d="M98.0724 63.8294C97.1724 62.8294 95.5724 58.3294 94.5724 53.9294C93.4724 49.4294 91.3724 43.8294 89.9724 41.4294C85.9724 34.9294 85.0724 33.5294 81.5724 27.9294C79.7724 25.1294 78.2724 22.4294 78.2724 21.8294C78.2724 21.3294 79.7724 20.2294 81.5724 19.4294C84.3724 18.2294 84.8724 17.4294 85.4724 13.3294C86.2724 7.52941 89.6724 1.72941 92.5724 1.12941C100.372 -0.470588 105.972 -0.370588 109.272 1.42941C112.272 3.02941 113.172 4.32941 115.372 11.1294C117.572 17.5294 118.472 19.1294 120.372 19.5294C123.572 20.3294 123.872 22.7294 120.972 26.1294C115.272 33.2294 108.372 49.5294 106.472 60.6294C105.772 64.6294 105.472 65.0294 102.672 65.3294C100.772 65.5294 99.0724 65.0294 98.0724 63.8294Z" fill="#B7B7B7"/>
<path d="M53.5195 110.617V118H30.8145V110.617H53.5195ZM34.0664 75.3438V118H24.5156V75.3438H34.0664ZM50.5898 92.5117V99.6602H30.8145V92.5117H50.5898ZM53.5488 75.3438V82.7559H30.8145V75.3438H53.5488ZM79.8563 75.3438V118H70.3348V75.3438H79.8563ZM92.8348 75.3438V82.7559H57.6199V75.3438H92.8348ZM120.402 106.75C120.402 106.027 120.295 105.383 120.08 104.816C119.865 104.23 119.474 103.693 118.908 103.205C118.341 102.717 117.541 102.229 116.505 101.74C115.47 101.232 114.113 100.715 112.433 100.188C110.519 99.5625 108.693 98.8594 106.955 98.0781C105.236 97.2773 103.703 96.3496 102.355 95.2949C101.007 94.2402 99.943 93.0098 99.1617 91.6035C98.4 90.1973 98.0191 88.5566 98.0191 86.6816C98.0191 84.8652 98.4195 83.2246 99.2203 81.7598C100.021 80.2949 101.144 79.0449 102.589 78.0098C104.035 76.9551 105.734 76.1543 107.687 75.6074C109.64 75.041 111.789 74.7578 114.132 74.7578C117.257 74.7578 120.002 75.3145 122.365 76.4277C124.748 77.5215 126.603 79.0645 127.931 81.0566C129.259 83.0293 129.923 85.3242 129.923 87.9414H120.431C120.431 86.7891 120.187 85.7734 119.699 84.8945C119.23 83.9961 118.507 83.293 117.531 82.7852C116.574 82.2773 115.373 82.0234 113.927 82.0234C112.521 82.0234 111.339 82.2383 110.382 82.668C109.445 83.0781 108.732 83.6445 108.244 84.3672C107.775 85.0898 107.541 85.8809 107.541 86.7402C107.541 87.4238 107.716 88.0488 108.068 88.6152C108.439 89.1621 108.966 89.6797 109.65 90.168C110.353 90.6367 111.213 91.0859 112.228 91.5156C113.244 91.9453 114.406 92.3555 115.714 92.7461C118 93.4688 120.021 94.2695 121.779 95.1484C123.556 96.0273 125.05 97.0234 126.261 98.1367C127.472 99.25 128.38 100.51 128.986 101.916C129.611 103.322 129.923 104.914 129.923 106.691C129.923 108.586 129.552 110.266 128.81 111.73C128.088 113.195 127.033 114.445 125.646 115.48C124.279 116.496 122.638 117.268 120.724 117.795C118.81 118.322 116.671 118.586 114.308 118.586C112.16 118.586 110.041 118.312 107.951 117.766C105.861 117.199 103.966 116.34 102.267 115.188C100.588 114.035 99.2398 112.57 98.2242 110.793C97.2281 108.996 96.7301 106.867 96.7301 104.406H106.281C106.281 105.695 106.466 106.789 106.838 107.688C107.209 108.566 107.736 109.279 108.42 109.826C109.123 110.373 109.972 110.764 110.968 110.998C111.964 111.232 113.078 111.35 114.308 111.35C115.734 111.35 116.886 111.154 117.765 110.764C118.664 110.354 119.328 109.797 119.757 109.094C120.187 108.391 120.402 107.609 120.402 106.75ZM172.315 95.7344V97.6387C172.315 100.881 171.866 103.791 170.967 106.369C170.088 108.947 168.829 111.145 167.188 112.961C165.567 114.777 163.633 116.174 161.387 117.15C159.161 118.107 156.69 118.586 153.975 118.586C151.26 118.586 148.78 118.107 146.534 117.15C144.287 116.174 142.334 114.777 140.674 112.961C139.034 111.145 137.764 108.947 136.866 106.369C135.967 103.791 135.518 100.881 135.518 97.6387V95.7344C135.518 92.4922 135.967 89.582 136.866 87.0039C137.764 84.4062 139.024 82.1992 140.645 80.3828C142.286 78.5664 144.229 77.1797 146.475 76.2227C148.721 75.2461 151.202 74.7578 153.916 74.7578C156.631 74.7578 159.112 75.2461 161.358 76.2227C163.604 77.1797 165.537 78.5664 167.159 80.3828C168.799 82.1992 170.069 84.4062 170.967 87.0039C171.866 89.582 172.315 92.4922 172.315 95.7344ZM162.676 97.6387V95.6758C162.676 93.5078 162.481 91.5938 162.09 89.9336C161.7 88.2539 161.133 86.8477 160.391 85.7148C159.649 84.582 158.731 83.7324 157.637 83.166C156.543 82.5801 155.303 82.2871 153.916 82.2871C152.471 82.2871 151.211 82.5801 150.137 83.166C149.063 83.7324 148.155 84.582 147.412 85.7148C146.69 86.8477 146.133 88.2539 145.743 89.9336C145.371 91.5938 145.186 93.5078 145.186 95.6758V97.6387C145.186 99.7871 145.371 101.701 145.743 103.381C146.133 105.041 146.7 106.447 147.442 107.6C148.184 108.752 149.092 109.621 150.166 110.207C151.26 110.793 152.53 111.086 153.975 111.086C155.362 111.086 156.592 110.793 157.666 110.207C158.76 109.621 159.678 108.752 160.42 107.6C161.162 106.447 161.719 105.041 162.09 103.381C162.481 101.701 162.676 99.7871 162.676 97.6387Z" fill="#0D3F91"/>
</svg>
